<?xml version="1.0"?>
<svg width="1024" height="1024" xmlns="http://www.w3.org/2000/svg" xmlns:svg="http://www.w3.org/2000/svg" version="1.1">
 <desc>Created by copying from open-in-terminal, which is from SF Symbols terminal thin</desc>
 <g class="layer">
  <title>Layer 1</title>
  <g id="Thin-L" transform="matrix(5.4588 0 0 5.48044 3098.02 7476.25)">
   <path d="m-530.621338,-1215.661987l112.645935,0c10.889008,0 16.60199,-5.908203 16.60199,-16.601563l0,-77.734375c0,-10.742188 -5.712982,-16.601563 -16.60199,-16.601563l-112.645935,0c-10.888733,0 -16.601501,5.712891 -16.601501,16.601563l0,77.734375c0,10.88855 5.712769,16.601563 16.601501,16.601563zm0.146484,-3.9552c-8.398376,0 -12.841797,-4.394409 -12.841797,-12.841675l0,-77.34375c0,-8.496094 4.44342,-12.890625 12.841797,-12.890625l112.353424,0c8.154022,0 12.84201,4.394531 12.84201,12.890625l0,77.34375c0,8.447266 -4.687988,12.841675 -12.84201,12.841675l-112.353424,0zm7.861267,-61.572144c-2.441345,1.464844 -0.390564,4.882813" id="svg_1"/>
  </g>
 </g>
</svg>